G04 #@! TF.GenerationSoftware,KiCad,Pcbnew,(5.1.6)-1*
G04 #@! TF.CreationDate,2020-09-18T14:42:58-04:00*
G04 #@! TF.ProjectId,4wireadapter,34776972-6561-4646-9170-7465722e6b69,rev?*
G04 #@! TF.SameCoordinates,Original*
G04 #@! TF.FileFunction,Soldermask,Bot*
G04 #@! TF.FilePolarity,Negative*
%FSLAX46Y46*%
G04 Gerber Fmt 4.6, Leading zero omitted, Abs format (unit mm)*
G04 Created by KiCad (PCBNEW (5.1.6)-1) date 2020-09-18 14:42:58*
%MOMM*%
%LPD*%
G01*
G04 APERTURE LIST*
%ADD10C,0.100000*%
G04 APERTURE END LIST*
D10*
G36*
X162841000Y-90197000D02*
G01*
X159739000Y-90197000D01*
X159739000Y-87095000D01*
X162841000Y-87095000D01*
X162841000Y-90197000D01*
G37*
G36*
X177340585Y-84584802D02*
G01*
X177490410Y-84614604D01*
X177772674Y-84731521D01*
X178026705Y-84901259D01*
X178242741Y-85117295D01*
X178412479Y-85371326D01*
X178529396Y-85653590D01*
X178589000Y-85953240D01*
X178589000Y-86258760D01*
X178529396Y-86558410D01*
X178412479Y-86840674D01*
X178242741Y-87094705D01*
X178026705Y-87310741D01*
X177772674Y-87480479D01*
X177490410Y-87597396D01*
X177340585Y-87627198D01*
X177190761Y-87657000D01*
X176885239Y-87657000D01*
X176735415Y-87627198D01*
X176585590Y-87597396D01*
X176303326Y-87480479D01*
X176049295Y-87310741D01*
X175833259Y-87094705D01*
X175663521Y-86840674D01*
X175546604Y-86558410D01*
X175487000Y-86258760D01*
X175487000Y-85953240D01*
X175546604Y-85653590D01*
X175663521Y-85371326D01*
X175833259Y-85117295D01*
X176049295Y-84901259D01*
X176303326Y-84731521D01*
X176585590Y-84614604D01*
X176735415Y-84584802D01*
X176885239Y-84555000D01*
X177190761Y-84555000D01*
X177340585Y-84584802D01*
G37*
G36*
X161592585Y-82044802D02*
G01*
X161742410Y-82074604D01*
X162024674Y-82191521D01*
X162278705Y-82361259D01*
X162494741Y-82577295D01*
X162664479Y-82831326D01*
X162781396Y-83113590D01*
X162841000Y-83413240D01*
X162841000Y-83718760D01*
X162781396Y-84018410D01*
X162664479Y-84300674D01*
X162494741Y-84554705D01*
X162278705Y-84770741D01*
X162024674Y-84940479D01*
X161742410Y-85057396D01*
X161592585Y-85087198D01*
X161442761Y-85117000D01*
X161137239Y-85117000D01*
X160987415Y-85087198D01*
X160837590Y-85057396D01*
X160555326Y-84940479D01*
X160301295Y-84770741D01*
X160085259Y-84554705D01*
X159915521Y-84300674D01*
X159798604Y-84018410D01*
X159739000Y-83718760D01*
X159739000Y-83413240D01*
X159798604Y-83113590D01*
X159915521Y-82831326D01*
X160085259Y-82577295D01*
X160301295Y-82361259D01*
X160555326Y-82191521D01*
X160837590Y-82074604D01*
X160987415Y-82044802D01*
X161137239Y-82015000D01*
X161442761Y-82015000D01*
X161592585Y-82044802D01*
G37*
G36*
X177340585Y-79504802D02*
G01*
X177490410Y-79534604D01*
X177772674Y-79651521D01*
X178026705Y-79821259D01*
X178242741Y-80037295D01*
X178412479Y-80291326D01*
X178529396Y-80573590D01*
X178589000Y-80873240D01*
X178589000Y-81178760D01*
X178529396Y-81478410D01*
X178412479Y-81760674D01*
X178242741Y-82014705D01*
X178026705Y-82230741D01*
X177772674Y-82400479D01*
X177490410Y-82517396D01*
X177340585Y-82547198D01*
X177190761Y-82577000D01*
X176885239Y-82577000D01*
X176735415Y-82547198D01*
X176585590Y-82517396D01*
X176303326Y-82400479D01*
X176049295Y-82230741D01*
X175833259Y-82014705D01*
X175663521Y-81760674D01*
X175546604Y-81478410D01*
X175487000Y-81178760D01*
X175487000Y-80873240D01*
X175546604Y-80573590D01*
X175663521Y-80291326D01*
X175833259Y-80037295D01*
X176049295Y-79821259D01*
X176303326Y-79651521D01*
X176585590Y-79534604D01*
X176735415Y-79504802D01*
X176885239Y-79475000D01*
X177190761Y-79475000D01*
X177340585Y-79504802D01*
G37*
G36*
X161592585Y-76964802D02*
G01*
X161742410Y-76994604D01*
X162024674Y-77111521D01*
X162278705Y-77281259D01*
X162494741Y-77497295D01*
X162664479Y-77751326D01*
X162781396Y-78033590D01*
X162841000Y-78333240D01*
X162841000Y-78638760D01*
X162781396Y-78938410D01*
X162664479Y-79220674D01*
X162494741Y-79474705D01*
X162278705Y-79690741D01*
X162024674Y-79860479D01*
X161742410Y-79977396D01*
X161592585Y-80007198D01*
X161442761Y-80037000D01*
X161137239Y-80037000D01*
X160987415Y-80007198D01*
X160837590Y-79977396D01*
X160555326Y-79860479D01*
X160301295Y-79690741D01*
X160085259Y-79474705D01*
X159915521Y-79220674D01*
X159798604Y-78938410D01*
X159739000Y-78638760D01*
X159739000Y-78333240D01*
X159798604Y-78033590D01*
X159915521Y-77751326D01*
X160085259Y-77497295D01*
X160301295Y-77281259D01*
X160555326Y-77111521D01*
X160837590Y-76994604D01*
X160987415Y-76964802D01*
X161137239Y-76935000D01*
X161442761Y-76935000D01*
X161592585Y-76964802D01*
G37*
G36*
X178589000Y-77497000D02*
G01*
X175487000Y-77497000D01*
X175487000Y-74395000D01*
X178589000Y-74395000D01*
X178589000Y-77497000D01*
G37*
G36*
X161592585Y-71884802D02*
G01*
X161742410Y-71914604D01*
X162024674Y-72031521D01*
X162278705Y-72201259D01*
X162494741Y-72417295D01*
X162664479Y-72671326D01*
X162781396Y-72953590D01*
X162841000Y-73253240D01*
X162841000Y-73558760D01*
X162781396Y-73858410D01*
X162664479Y-74140674D01*
X162494741Y-74394705D01*
X162278705Y-74610741D01*
X162024674Y-74780479D01*
X161742410Y-74897396D01*
X161592585Y-74927198D01*
X161442761Y-74957000D01*
X161137239Y-74957000D01*
X160987415Y-74927198D01*
X160837590Y-74897396D01*
X160555326Y-74780479D01*
X160301295Y-74610741D01*
X160085259Y-74394705D01*
X159915521Y-74140674D01*
X159798604Y-73858410D01*
X159739000Y-73558760D01*
X159739000Y-73253240D01*
X159798604Y-72953590D01*
X159915521Y-72671326D01*
X160085259Y-72417295D01*
X160301295Y-72201259D01*
X160555326Y-72031521D01*
X160837590Y-71914604D01*
X160987415Y-71884802D01*
X161137239Y-71855000D01*
X161442761Y-71855000D01*
X161592585Y-71884802D01*
G37*
M02*
