G04 #@! TF.GenerationSoftware,KiCad,Pcbnew,(5.1.6)-1*
G04 #@! TF.CreationDate,2020-09-18T14:42:58-04:00*
G04 #@! TF.ProjectId,4wireadapter,34776972-6561-4646-9170-7465722e6b69,rev?*
G04 #@! TF.SameCoordinates,Original*
G04 #@! TF.FileFunction,Legend,Top*
G04 #@! TF.FilePolarity,Positive*
%FSLAX46Y46*%
G04 Gerber Fmt 4.6, Leading zero omitted, Abs format (unit mm)*
G04 Created by KiCad (PCBNEW (5.1.6)-1) date 2020-09-18 14:42:58*
%MOMM*%
%LPD*%
G01*
G04 APERTURE LIST*
%ADD10C,0.120000*%
%ADD11C,0.150000*%
G04 APERTURE END LIST*
D10*
X168285279Y-85850000D02*
X167959721Y-85850000D01*
X168285279Y-86870000D02*
X167959721Y-86870000D01*
X171960000Y-86040279D02*
X171960000Y-85714721D01*
X170940000Y-86040279D02*
X170940000Y-85714721D01*
X170571279Y-76706000D02*
X170245721Y-76706000D01*
X170571279Y-77726000D02*
X170245721Y-77726000D01*
D11*
X166940001Y-78451000D02*
X166940001Y-78501000D01*
X171090001Y-78451000D02*
X171090001Y-78596000D01*
X171090001Y-83601000D02*
X171090001Y-83456000D01*
X166940001Y-83601000D02*
X166940001Y-83456000D01*
X166940001Y-78451000D02*
X171090001Y-78451000D01*
X166940001Y-83601000D02*
X171090001Y-83601000D01*
X166940001Y-78501000D02*
X165540001Y-78501000D01*
X167955833Y-88242380D02*
X167622500Y-87766190D01*
X167384404Y-88242380D02*
X167384404Y-87242380D01*
X167765357Y-87242380D01*
X167860595Y-87290000D01*
X167908214Y-87337619D01*
X167955833Y-87432857D01*
X167955833Y-87575714D01*
X167908214Y-87670952D01*
X167860595Y-87718571D01*
X167765357Y-87766190D01*
X167384404Y-87766190D01*
X168908214Y-88242380D02*
X168336785Y-88242380D01*
X168622500Y-88242380D02*
X168622500Y-87242380D01*
X168527261Y-87385238D01*
X168432023Y-87480476D01*
X168336785Y-87528095D01*
X173331142Y-86044166D02*
X173378761Y-86091785D01*
X173426380Y-86234642D01*
X173426380Y-86329880D01*
X173378761Y-86472738D01*
X173283523Y-86567976D01*
X173188285Y-86615595D01*
X172997809Y-86663214D01*
X172854952Y-86663214D01*
X172664476Y-86615595D01*
X172569238Y-86567976D01*
X172474000Y-86472738D01*
X172426380Y-86329880D01*
X172426380Y-86234642D01*
X172474000Y-86091785D01*
X172521619Y-86044166D01*
X172521619Y-85663214D02*
X172474000Y-85615595D01*
X172426380Y-85520357D01*
X172426380Y-85282261D01*
X172474000Y-85187023D01*
X172521619Y-85139404D01*
X172616857Y-85091785D01*
X172712095Y-85091785D01*
X172854952Y-85139404D01*
X173426380Y-85710833D01*
X173426380Y-85091785D01*
X170241833Y-76049142D02*
X170194214Y-76096761D01*
X170051357Y-76144380D01*
X169956119Y-76144380D01*
X169813261Y-76096761D01*
X169718023Y-76001523D01*
X169670404Y-75906285D01*
X169622785Y-75715809D01*
X169622785Y-75572952D01*
X169670404Y-75382476D01*
X169718023Y-75287238D01*
X169813261Y-75192000D01*
X169956119Y-75144380D01*
X170051357Y-75144380D01*
X170194214Y-75192000D01*
X170241833Y-75239619D01*
X171194214Y-76144380D02*
X170622785Y-76144380D01*
X170908500Y-76144380D02*
X170908500Y-75144380D01*
X170813261Y-75287238D01*
X170718023Y-75382476D01*
X170622785Y-75430095D01*
X166878095Y-76922380D02*
X166878095Y-77731904D01*
X166925714Y-77827142D01*
X166973333Y-77874761D01*
X167068571Y-77922380D01*
X167259047Y-77922380D01*
X167354285Y-77874761D01*
X167401904Y-77827142D01*
X167449523Y-77731904D01*
X167449523Y-76922380D01*
X168449523Y-77922380D02*
X167878095Y-77922380D01*
X168163809Y-77922380D02*
X168163809Y-76922380D01*
X168068571Y-77065238D01*
X167973333Y-77160476D01*
X167878095Y-77208095D01*
M02*
