G04 #@! TF.GenerationSoftware,KiCad,Pcbnew,(5.1.6)-1*
G04 #@! TF.CreationDate,2020-09-18T14:42:58-04:00*
G04 #@! TF.ProjectId,4wireadapter,34776972-6561-4646-9170-7465722e6b69,rev?*
G04 #@! TF.SameCoordinates,Original*
G04 #@! TF.FileFunction,Copper,L2,Bot*
G04 #@! TF.FilePolarity,Positive*
%FSLAX46Y46*%
G04 Gerber Fmt 4.6, Leading zero omitted, Abs format (unit mm)*
G04 Created by KiCad (PCBNEW (5.1.6)-1) date 2020-09-18 14:42:58*
%MOMM*%
%LPD*%
G01*
G04 APERTURE LIST*
G04 #@! TA.AperFunction,ComponentPad*
%ADD10C,3.000000*%
G04 #@! TD*
G04 #@! TA.AperFunction,ComponentPad*
%ADD11R,3.000000X3.000000*%
G04 #@! TD*
G04 #@! TA.AperFunction,ViaPad*
%ADD12C,0.800000*%
G04 #@! TD*
G04 #@! TA.AperFunction,Conductor*
%ADD13C,0.508000*%
G04 #@! TD*
G04 #@! TA.AperFunction,Conductor*
%ADD14C,0.254000*%
G04 #@! TD*
G04 APERTURE END LIST*
D10*
X177038000Y-86106000D03*
X177038000Y-81026000D03*
D11*
X177038000Y-75946000D03*
D10*
X161290000Y-73406000D03*
D11*
X161290000Y-88646000D03*
D10*
X161290000Y-78486000D03*
X161290000Y-83566000D03*
D12*
X174244000Y-82804000D03*
X173990000Y-84074000D03*
X168402000Y-75692000D03*
X172720000Y-85090000D03*
X168910000Y-81280000D03*
X167640000Y-85090000D03*
D13*
X168910000Y-81280000D02*
X168910000Y-83820000D01*
X168910000Y-83820000D02*
X167640000Y-85090000D01*
D14*
G36*
X178629000Y-73816890D02*
G01*
X178538000Y-73807928D01*
X175538000Y-73807928D01*
X175413518Y-73820188D01*
X175293820Y-73856498D01*
X175183506Y-73915463D01*
X175086815Y-73994815D01*
X175007463Y-74091506D01*
X174948498Y-74201820D01*
X174912188Y-74321518D01*
X174899928Y-74446000D01*
X174899928Y-77446000D01*
X174912188Y-77570482D01*
X174948498Y-77690180D01*
X175007463Y-77800494D01*
X175086815Y-77897185D01*
X175183506Y-77976537D01*
X175293820Y-78035502D01*
X175413518Y-78071812D01*
X175538000Y-78084072D01*
X178538000Y-78084072D01*
X178629000Y-78075110D01*
X178629000Y-79597654D01*
X178398983Y-79367637D01*
X178049302Y-79133988D01*
X177660756Y-78973047D01*
X177248279Y-78891000D01*
X176827721Y-78891000D01*
X176415244Y-78973047D01*
X176026698Y-79133988D01*
X175677017Y-79367637D01*
X175379637Y-79665017D01*
X175145988Y-80014698D01*
X174985047Y-80403244D01*
X174903000Y-80815721D01*
X174903000Y-81236279D01*
X174985047Y-81648756D01*
X175145988Y-82037302D01*
X175379637Y-82386983D01*
X175677017Y-82684363D01*
X176026698Y-82918012D01*
X176415244Y-83078953D01*
X176827721Y-83161000D01*
X177248279Y-83161000D01*
X177660756Y-83078953D01*
X178049302Y-82918012D01*
X178398983Y-82684363D01*
X178629001Y-82454345D01*
X178629001Y-90491000D01*
X163325612Y-90491000D01*
X163379502Y-90390180D01*
X163415812Y-90270482D01*
X163428072Y-90146000D01*
X163428072Y-87146000D01*
X163415812Y-87021518D01*
X163379502Y-86901820D01*
X163320537Y-86791506D01*
X163241185Y-86694815D01*
X163144494Y-86615463D01*
X163034180Y-86556498D01*
X162914482Y-86520188D01*
X162790000Y-86507928D01*
X159790000Y-86507928D01*
X159665518Y-86520188D01*
X159545820Y-86556498D01*
X159445000Y-86610388D01*
X159445000Y-84647661D01*
X159631637Y-84926983D01*
X159929017Y-85224363D01*
X160278698Y-85458012D01*
X160667244Y-85618953D01*
X161079721Y-85701000D01*
X161500279Y-85701000D01*
X161912756Y-85618953D01*
X162301302Y-85458012D01*
X162650983Y-85224363D01*
X162887285Y-84988061D01*
X166605000Y-84988061D01*
X166605000Y-85191939D01*
X166644774Y-85391898D01*
X166722795Y-85580256D01*
X166836063Y-85749774D01*
X166980226Y-85893937D01*
X167149744Y-86007205D01*
X167338102Y-86085226D01*
X167538061Y-86125000D01*
X167741939Y-86125000D01*
X167941898Y-86085226D01*
X168130256Y-86007205D01*
X168299774Y-85893937D01*
X168443937Y-85749774D01*
X168557205Y-85580256D01*
X168635226Y-85391898D01*
X168645130Y-85342105D01*
X169507741Y-84479494D01*
X169541659Y-84451659D01*
X169652753Y-84316291D01*
X169735303Y-84161851D01*
X169755650Y-84094774D01*
X169786136Y-83994276D01*
X169789406Y-83961076D01*
X169799000Y-83863667D01*
X169799000Y-83863661D01*
X169803300Y-83820001D01*
X169799000Y-83776341D01*
X169799000Y-81812468D01*
X169827205Y-81770256D01*
X169905226Y-81581898D01*
X169945000Y-81381939D01*
X169945000Y-81178061D01*
X169905226Y-80978102D01*
X169827205Y-80789744D01*
X169713937Y-80620226D01*
X169569774Y-80476063D01*
X169400256Y-80362795D01*
X169211898Y-80284774D01*
X169011939Y-80245000D01*
X168808061Y-80245000D01*
X168608102Y-80284774D01*
X168419744Y-80362795D01*
X168250226Y-80476063D01*
X168106063Y-80620226D01*
X167992795Y-80789744D01*
X167914774Y-80978102D01*
X167875000Y-81178061D01*
X167875000Y-81381939D01*
X167914774Y-81581898D01*
X167992795Y-81770256D01*
X168021000Y-81812468D01*
X168021001Y-83451763D01*
X167387895Y-84084870D01*
X167338102Y-84094774D01*
X167149744Y-84172795D01*
X166980226Y-84286063D01*
X166836063Y-84430226D01*
X166722795Y-84599744D01*
X166644774Y-84788102D01*
X166605000Y-84988061D01*
X162887285Y-84988061D01*
X162948363Y-84926983D01*
X163182012Y-84577302D01*
X163342953Y-84188756D01*
X163425000Y-83776279D01*
X163425000Y-83355721D01*
X163342953Y-82943244D01*
X163182012Y-82554698D01*
X162948363Y-82205017D01*
X162650983Y-81907637D01*
X162301302Y-81673988D01*
X161912756Y-81513047D01*
X161500279Y-81431000D01*
X161079721Y-81431000D01*
X160667244Y-81513047D01*
X160278698Y-81673988D01*
X159929017Y-81907637D01*
X159631637Y-82205017D01*
X159445000Y-82484339D01*
X159445000Y-79567661D01*
X159631637Y-79846983D01*
X159929017Y-80144363D01*
X160278698Y-80378012D01*
X160667244Y-80538953D01*
X161079721Y-80621000D01*
X161500279Y-80621000D01*
X161912756Y-80538953D01*
X162301302Y-80378012D01*
X162650983Y-80144363D01*
X162948363Y-79846983D01*
X163182012Y-79497302D01*
X163342953Y-79108756D01*
X163425000Y-78696279D01*
X163425000Y-78275721D01*
X163342953Y-77863244D01*
X163182012Y-77474698D01*
X162948363Y-77125017D01*
X162650983Y-76827637D01*
X162301302Y-76593988D01*
X161912756Y-76433047D01*
X161500279Y-76351000D01*
X161079721Y-76351000D01*
X160667244Y-76433047D01*
X160278698Y-76593988D01*
X159929017Y-76827637D01*
X159631637Y-77125017D01*
X159445000Y-77404339D01*
X159445000Y-71815000D01*
X178629000Y-71815000D01*
X178629000Y-73816890D01*
G37*
X178629000Y-73816890D02*
X178538000Y-73807928D01*
X175538000Y-73807928D01*
X175413518Y-73820188D01*
X175293820Y-73856498D01*
X175183506Y-73915463D01*
X175086815Y-73994815D01*
X175007463Y-74091506D01*
X174948498Y-74201820D01*
X174912188Y-74321518D01*
X174899928Y-74446000D01*
X174899928Y-77446000D01*
X174912188Y-77570482D01*
X174948498Y-77690180D01*
X175007463Y-77800494D01*
X175086815Y-77897185D01*
X175183506Y-77976537D01*
X175293820Y-78035502D01*
X175413518Y-78071812D01*
X175538000Y-78084072D01*
X178538000Y-78084072D01*
X178629000Y-78075110D01*
X178629000Y-79597654D01*
X178398983Y-79367637D01*
X178049302Y-79133988D01*
X177660756Y-78973047D01*
X177248279Y-78891000D01*
X176827721Y-78891000D01*
X176415244Y-78973047D01*
X176026698Y-79133988D01*
X175677017Y-79367637D01*
X175379637Y-79665017D01*
X175145988Y-80014698D01*
X174985047Y-80403244D01*
X174903000Y-80815721D01*
X174903000Y-81236279D01*
X174985047Y-81648756D01*
X175145988Y-82037302D01*
X175379637Y-82386983D01*
X175677017Y-82684363D01*
X176026698Y-82918012D01*
X176415244Y-83078953D01*
X176827721Y-83161000D01*
X177248279Y-83161000D01*
X177660756Y-83078953D01*
X178049302Y-82918012D01*
X178398983Y-82684363D01*
X178629001Y-82454345D01*
X178629001Y-90491000D01*
X163325612Y-90491000D01*
X163379502Y-90390180D01*
X163415812Y-90270482D01*
X163428072Y-90146000D01*
X163428072Y-87146000D01*
X163415812Y-87021518D01*
X163379502Y-86901820D01*
X163320537Y-86791506D01*
X163241185Y-86694815D01*
X163144494Y-86615463D01*
X163034180Y-86556498D01*
X162914482Y-86520188D01*
X162790000Y-86507928D01*
X159790000Y-86507928D01*
X159665518Y-86520188D01*
X159545820Y-86556498D01*
X159445000Y-86610388D01*
X159445000Y-84647661D01*
X159631637Y-84926983D01*
X159929017Y-85224363D01*
X160278698Y-85458012D01*
X160667244Y-85618953D01*
X161079721Y-85701000D01*
X161500279Y-85701000D01*
X161912756Y-85618953D01*
X162301302Y-85458012D01*
X162650983Y-85224363D01*
X162887285Y-84988061D01*
X166605000Y-84988061D01*
X166605000Y-85191939D01*
X166644774Y-85391898D01*
X166722795Y-85580256D01*
X166836063Y-85749774D01*
X166980226Y-85893937D01*
X167149744Y-86007205D01*
X167338102Y-86085226D01*
X167538061Y-86125000D01*
X167741939Y-86125000D01*
X167941898Y-86085226D01*
X168130256Y-86007205D01*
X168299774Y-85893937D01*
X168443937Y-85749774D01*
X168557205Y-85580256D01*
X168635226Y-85391898D01*
X168645130Y-85342105D01*
X169507741Y-84479494D01*
X169541659Y-84451659D01*
X169652753Y-84316291D01*
X169735303Y-84161851D01*
X169755650Y-84094774D01*
X169786136Y-83994276D01*
X169789406Y-83961076D01*
X169799000Y-83863667D01*
X169799000Y-83863661D01*
X169803300Y-83820001D01*
X169799000Y-83776341D01*
X169799000Y-81812468D01*
X169827205Y-81770256D01*
X169905226Y-81581898D01*
X169945000Y-81381939D01*
X169945000Y-81178061D01*
X169905226Y-80978102D01*
X169827205Y-80789744D01*
X169713937Y-80620226D01*
X169569774Y-80476063D01*
X169400256Y-80362795D01*
X169211898Y-80284774D01*
X169011939Y-80245000D01*
X168808061Y-80245000D01*
X168608102Y-80284774D01*
X168419744Y-80362795D01*
X168250226Y-80476063D01*
X168106063Y-80620226D01*
X167992795Y-80789744D01*
X167914774Y-80978102D01*
X167875000Y-81178061D01*
X167875000Y-81381939D01*
X167914774Y-81581898D01*
X167992795Y-81770256D01*
X168021000Y-81812468D01*
X168021001Y-83451763D01*
X167387895Y-84084870D01*
X167338102Y-84094774D01*
X167149744Y-84172795D01*
X166980226Y-84286063D01*
X166836063Y-84430226D01*
X166722795Y-84599744D01*
X166644774Y-84788102D01*
X166605000Y-84988061D01*
X162887285Y-84988061D01*
X162948363Y-84926983D01*
X163182012Y-84577302D01*
X163342953Y-84188756D01*
X163425000Y-83776279D01*
X163425000Y-83355721D01*
X163342953Y-82943244D01*
X163182012Y-82554698D01*
X162948363Y-82205017D01*
X162650983Y-81907637D01*
X162301302Y-81673988D01*
X161912756Y-81513047D01*
X161500279Y-81431000D01*
X161079721Y-81431000D01*
X160667244Y-81513047D01*
X160278698Y-81673988D01*
X159929017Y-81907637D01*
X159631637Y-82205017D01*
X159445000Y-82484339D01*
X159445000Y-79567661D01*
X159631637Y-79846983D01*
X159929017Y-80144363D01*
X160278698Y-80378012D01*
X160667244Y-80538953D01*
X161079721Y-80621000D01*
X161500279Y-80621000D01*
X161912756Y-80538953D01*
X162301302Y-80378012D01*
X162650983Y-80144363D01*
X162948363Y-79846983D01*
X163182012Y-79497302D01*
X163342953Y-79108756D01*
X163425000Y-78696279D01*
X163425000Y-78275721D01*
X163342953Y-77863244D01*
X163182012Y-77474698D01*
X162948363Y-77125017D01*
X162650983Y-76827637D01*
X162301302Y-76593988D01*
X161912756Y-76433047D01*
X161500279Y-76351000D01*
X161079721Y-76351000D01*
X160667244Y-76433047D01*
X160278698Y-76593988D01*
X159929017Y-76827637D01*
X159631637Y-77125017D01*
X159445000Y-77404339D01*
X159445000Y-71815000D01*
X178629000Y-71815000D01*
X178629000Y-73816890D01*
M02*
