G04 #@! TF.GenerationSoftware,KiCad,Pcbnew,(5.1.6)-1*
G04 #@! TF.CreationDate,2020-09-18T14:42:58-04:00*
G04 #@! TF.ProjectId,4wireadapter,34776972-6561-4646-9170-7465722e6b69,rev?*
G04 #@! TF.SameCoordinates,Original*
G04 #@! TF.FileFunction,Soldermask,Top*
G04 #@! TF.FilePolarity,Negative*
%FSLAX46Y46*%
G04 Gerber Fmt 4.6, Leading zero omitted, Abs format (unit mm)*
G04 Created by KiCad (PCBNEW (5.1.6)-1) date 2020-09-18 14:42:58*
%MOMM*%
%LPD*%
G01*
G04 APERTURE LIST*
%ADD10C,0.100000*%
G04 APERTURE END LIST*
D10*
G36*
X162841000Y-90197000D02*
G01*
X159739000Y-90197000D01*
X159739000Y-87095000D01*
X162841000Y-87095000D01*
X162841000Y-90197000D01*
G37*
G36*
X177340585Y-84584802D02*
G01*
X177490410Y-84614604D01*
X177772674Y-84731521D01*
X178026705Y-84901259D01*
X178242741Y-85117295D01*
X178412479Y-85371326D01*
X178529396Y-85653590D01*
X178529396Y-85653591D01*
X178581416Y-85915110D01*
X178589000Y-85953240D01*
X178589000Y-86258760D01*
X178529396Y-86558410D01*
X178412479Y-86840674D01*
X178242741Y-87094705D01*
X178026705Y-87310741D01*
X177772674Y-87480479D01*
X177490410Y-87597396D01*
X177340585Y-87627198D01*
X177190761Y-87657000D01*
X176885239Y-87657000D01*
X176735415Y-87627198D01*
X176585590Y-87597396D01*
X176303326Y-87480479D01*
X176049295Y-87310741D01*
X175833259Y-87094705D01*
X175663521Y-86840674D01*
X175546604Y-86558410D01*
X175487000Y-86258760D01*
X175487000Y-85953240D01*
X175494585Y-85915110D01*
X175546604Y-85653591D01*
X175546604Y-85653590D01*
X175663521Y-85371326D01*
X175833259Y-85117295D01*
X176049295Y-84901259D01*
X176303326Y-84731521D01*
X176585590Y-84614604D01*
X176735415Y-84584802D01*
X176885239Y-84555000D01*
X177190761Y-84555000D01*
X177340585Y-84584802D01*
G37*
G36*
X171829591Y-86180585D02*
G01*
X171863569Y-86190893D01*
X171894890Y-86207634D01*
X171922339Y-86230161D01*
X171944866Y-86257610D01*
X171961607Y-86288931D01*
X171971915Y-86322909D01*
X171976000Y-86364390D01*
X171976000Y-86965610D01*
X171971915Y-87007091D01*
X171961607Y-87041069D01*
X171944866Y-87072390D01*
X171922339Y-87099839D01*
X171894890Y-87122366D01*
X171863569Y-87139107D01*
X171829591Y-87149415D01*
X171788110Y-87153500D01*
X171111890Y-87153500D01*
X171070409Y-87149415D01*
X171036431Y-87139107D01*
X171005110Y-87122366D01*
X170977661Y-87099839D01*
X170955134Y-87072390D01*
X170938393Y-87041069D01*
X170928085Y-87007091D01*
X170924000Y-86965610D01*
X170924000Y-86364390D01*
X170928085Y-86322909D01*
X170938393Y-86288931D01*
X170955134Y-86257610D01*
X170977661Y-86230161D01*
X171005110Y-86207634D01*
X171036431Y-86190893D01*
X171070409Y-86180585D01*
X171111890Y-86176500D01*
X171788110Y-86176500D01*
X171829591Y-86180585D01*
G37*
G36*
X167677091Y-85838085D02*
G01*
X167711069Y-85848393D01*
X167742390Y-85865134D01*
X167769839Y-85887661D01*
X167792366Y-85915110D01*
X167809107Y-85946431D01*
X167819415Y-85980409D01*
X167823500Y-86021890D01*
X167823500Y-86698110D01*
X167819415Y-86739591D01*
X167809107Y-86773569D01*
X167792366Y-86804890D01*
X167769839Y-86832339D01*
X167742390Y-86854866D01*
X167711069Y-86871607D01*
X167677091Y-86881915D01*
X167635610Y-86886000D01*
X167034390Y-86886000D01*
X166992909Y-86881915D01*
X166958931Y-86871607D01*
X166927610Y-86854866D01*
X166900161Y-86832339D01*
X166877634Y-86804890D01*
X166860893Y-86773569D01*
X166850585Y-86739591D01*
X166846500Y-86698110D01*
X166846500Y-86021890D01*
X166850585Y-85980409D01*
X166860893Y-85946431D01*
X166877634Y-85915110D01*
X166900161Y-85887661D01*
X166927610Y-85865134D01*
X166958931Y-85848393D01*
X166992909Y-85838085D01*
X167034390Y-85834000D01*
X167635610Y-85834000D01*
X167677091Y-85838085D01*
G37*
G36*
X169252091Y-85838085D02*
G01*
X169286069Y-85848393D01*
X169317390Y-85865134D01*
X169344839Y-85887661D01*
X169367366Y-85915110D01*
X169384107Y-85946431D01*
X169394415Y-85980409D01*
X169398500Y-86021890D01*
X169398500Y-86698110D01*
X169394415Y-86739591D01*
X169384107Y-86773569D01*
X169367366Y-86804890D01*
X169344839Y-86832339D01*
X169317390Y-86854866D01*
X169286069Y-86871607D01*
X169252091Y-86881915D01*
X169210610Y-86886000D01*
X168609390Y-86886000D01*
X168567909Y-86881915D01*
X168533931Y-86871607D01*
X168502610Y-86854866D01*
X168475161Y-86832339D01*
X168452634Y-86804890D01*
X168435893Y-86773569D01*
X168425585Y-86739591D01*
X168421500Y-86698110D01*
X168421500Y-86021890D01*
X168425585Y-85980409D01*
X168435893Y-85946431D01*
X168452634Y-85915110D01*
X168475161Y-85887661D01*
X168502610Y-85865134D01*
X168533931Y-85848393D01*
X168567909Y-85838085D01*
X168609390Y-85834000D01*
X169210610Y-85834000D01*
X169252091Y-85838085D01*
G37*
G36*
X171829591Y-84605585D02*
G01*
X171863569Y-84615893D01*
X171894890Y-84632634D01*
X171922339Y-84655161D01*
X171944866Y-84682610D01*
X171961607Y-84713931D01*
X171971915Y-84747909D01*
X171976000Y-84789390D01*
X171976000Y-85390610D01*
X171971915Y-85432091D01*
X171961607Y-85466069D01*
X171944866Y-85497390D01*
X171922339Y-85524839D01*
X171894890Y-85547366D01*
X171863569Y-85564107D01*
X171829591Y-85574415D01*
X171788110Y-85578500D01*
X171111890Y-85578500D01*
X171070409Y-85574415D01*
X171036431Y-85564107D01*
X171005110Y-85547366D01*
X170977661Y-85524839D01*
X170955134Y-85497390D01*
X170938393Y-85466069D01*
X170928085Y-85432091D01*
X170924000Y-85390610D01*
X170924000Y-84789390D01*
X170928085Y-84747909D01*
X170938393Y-84713931D01*
X170955134Y-84682610D01*
X170977661Y-84655161D01*
X171005110Y-84632634D01*
X171036431Y-84615893D01*
X171070409Y-84605585D01*
X171111890Y-84601500D01*
X171788110Y-84601500D01*
X171829591Y-84605585D01*
G37*
G36*
X161592585Y-82044802D02*
G01*
X161742410Y-82074604D01*
X162024674Y-82191521D01*
X162278705Y-82361259D01*
X162494741Y-82577295D01*
X162664479Y-82831326D01*
X162781396Y-83113590D01*
X162841000Y-83413240D01*
X162841000Y-83718760D01*
X162781396Y-84018410D01*
X162664479Y-84300674D01*
X162494741Y-84554705D01*
X162278705Y-84770741D01*
X162024674Y-84940479D01*
X161742410Y-85057396D01*
X161592585Y-85087198D01*
X161442761Y-85117000D01*
X161137239Y-85117000D01*
X160987415Y-85087198D01*
X160837590Y-85057396D01*
X160555326Y-84940479D01*
X160301295Y-84770741D01*
X160085259Y-84554705D01*
X159915521Y-84300674D01*
X159798604Y-84018410D01*
X159739000Y-83718760D01*
X159739000Y-83413240D01*
X159798604Y-83113590D01*
X159915521Y-82831326D01*
X160085259Y-82577295D01*
X160301295Y-82361259D01*
X160555326Y-82191521D01*
X160837590Y-82074604D01*
X160987415Y-82044802D01*
X161137239Y-82015000D01*
X161442761Y-82015000D01*
X161592585Y-82044802D01*
G37*
G36*
X167141001Y-83282000D02*
G01*
X165489001Y-83282000D01*
X165489001Y-82580000D01*
X167141001Y-82580000D01*
X167141001Y-83282000D01*
G37*
G36*
X172541001Y-83282000D02*
G01*
X170889001Y-83282000D01*
X170889001Y-82580000D01*
X172541001Y-82580000D01*
X172541001Y-83282000D01*
G37*
G36*
X177340585Y-79504802D02*
G01*
X177490410Y-79534604D01*
X177772674Y-79651521D01*
X178026705Y-79821259D01*
X178242741Y-80037295D01*
X178412479Y-80291326D01*
X178529396Y-80573590D01*
X178589000Y-80873240D01*
X178589000Y-81178760D01*
X178529396Y-81478410D01*
X178412479Y-81760674D01*
X178242741Y-82014705D01*
X178026705Y-82230741D01*
X177772674Y-82400479D01*
X177490410Y-82517396D01*
X177340585Y-82547198D01*
X177190761Y-82577000D01*
X176885239Y-82577000D01*
X176735415Y-82547198D01*
X176585590Y-82517396D01*
X176303326Y-82400479D01*
X176049295Y-82230741D01*
X175833259Y-82014705D01*
X175663521Y-81760674D01*
X175546604Y-81478410D01*
X175487000Y-81178760D01*
X175487000Y-80873240D01*
X175546604Y-80573590D01*
X175663521Y-80291326D01*
X175833259Y-80037295D01*
X176049295Y-79821259D01*
X176303326Y-79651521D01*
X176585590Y-79534604D01*
X176735415Y-79504802D01*
X176885239Y-79475000D01*
X177190761Y-79475000D01*
X177340585Y-79504802D01*
G37*
G36*
X167141001Y-82012000D02*
G01*
X165489001Y-82012000D01*
X165489001Y-81310000D01*
X167141001Y-81310000D01*
X167141001Y-82012000D01*
G37*
G36*
X172541001Y-82012000D02*
G01*
X170889001Y-82012000D01*
X170889001Y-81310000D01*
X172541001Y-81310000D01*
X172541001Y-82012000D01*
G37*
G36*
X172541001Y-80742000D02*
G01*
X170889001Y-80742000D01*
X170889001Y-80040000D01*
X172541001Y-80040000D01*
X172541001Y-80742000D01*
G37*
G36*
X167141001Y-80742000D02*
G01*
X165489001Y-80742000D01*
X165489001Y-80040000D01*
X167141001Y-80040000D01*
X167141001Y-80742000D01*
G37*
G36*
X161592585Y-76964802D02*
G01*
X161742410Y-76994604D01*
X162024674Y-77111521D01*
X162278705Y-77281259D01*
X162494741Y-77497295D01*
X162664479Y-77751326D01*
X162781396Y-78033590D01*
X162841000Y-78333240D01*
X162841000Y-78638760D01*
X162781396Y-78938410D01*
X162664479Y-79220674D01*
X162494741Y-79474705D01*
X162278705Y-79690741D01*
X162024674Y-79860479D01*
X161742410Y-79977396D01*
X161592585Y-80007198D01*
X161442761Y-80037000D01*
X161137239Y-80037000D01*
X160987415Y-80007198D01*
X160837590Y-79977396D01*
X160555326Y-79860479D01*
X160301295Y-79690741D01*
X160085259Y-79474705D01*
X159915521Y-79220674D01*
X159798604Y-78938410D01*
X159739000Y-78638760D01*
X159739000Y-78333240D01*
X159798604Y-78033590D01*
X159915521Y-77751326D01*
X160085259Y-77497295D01*
X160301295Y-77281259D01*
X160555326Y-77111521D01*
X160837590Y-76994604D01*
X160987415Y-76964802D01*
X161137239Y-76935000D01*
X161442761Y-76935000D01*
X161592585Y-76964802D01*
G37*
G36*
X167141001Y-79472000D02*
G01*
X165489001Y-79472000D01*
X165489001Y-78770000D01*
X167141001Y-78770000D01*
X167141001Y-79472000D01*
G37*
G36*
X172541001Y-79472000D02*
G01*
X170889001Y-79472000D01*
X170889001Y-78770000D01*
X172541001Y-78770000D01*
X172541001Y-79472000D01*
G37*
G36*
X171538091Y-76694085D02*
G01*
X171572069Y-76704393D01*
X171603390Y-76721134D01*
X171630839Y-76743661D01*
X171653366Y-76771110D01*
X171670107Y-76802431D01*
X171680415Y-76836409D01*
X171684500Y-76877890D01*
X171684500Y-77554110D01*
X171680415Y-77595591D01*
X171670107Y-77629569D01*
X171653366Y-77660890D01*
X171630839Y-77688339D01*
X171603390Y-77710866D01*
X171572069Y-77727607D01*
X171538091Y-77737915D01*
X171496610Y-77742000D01*
X170895390Y-77742000D01*
X170853909Y-77737915D01*
X170819931Y-77727607D01*
X170788610Y-77710866D01*
X170761161Y-77688339D01*
X170738634Y-77660890D01*
X170721893Y-77629569D01*
X170711585Y-77595591D01*
X170707500Y-77554110D01*
X170707500Y-76877890D01*
X170711585Y-76836409D01*
X170721893Y-76802431D01*
X170738634Y-76771110D01*
X170761161Y-76743661D01*
X170788610Y-76721134D01*
X170819931Y-76704393D01*
X170853909Y-76694085D01*
X170895390Y-76690000D01*
X171496610Y-76690000D01*
X171538091Y-76694085D01*
G37*
G36*
X169963091Y-76694085D02*
G01*
X169997069Y-76704393D01*
X170028390Y-76721134D01*
X170055839Y-76743661D01*
X170078366Y-76771110D01*
X170095107Y-76802431D01*
X170105415Y-76836409D01*
X170109500Y-76877890D01*
X170109500Y-77554110D01*
X170105415Y-77595591D01*
X170095107Y-77629569D01*
X170078366Y-77660890D01*
X170055839Y-77688339D01*
X170028390Y-77710866D01*
X169997069Y-77727607D01*
X169963091Y-77737915D01*
X169921610Y-77742000D01*
X169320390Y-77742000D01*
X169278909Y-77737915D01*
X169244931Y-77727607D01*
X169213610Y-77710866D01*
X169186161Y-77688339D01*
X169163634Y-77660890D01*
X169146893Y-77629569D01*
X169136585Y-77595591D01*
X169132500Y-77554110D01*
X169132500Y-76877890D01*
X169136585Y-76836409D01*
X169146893Y-76802431D01*
X169163634Y-76771110D01*
X169186161Y-76743661D01*
X169213610Y-76721134D01*
X169244931Y-76704393D01*
X169278909Y-76694085D01*
X169320390Y-76690000D01*
X169921610Y-76690000D01*
X169963091Y-76694085D01*
G37*
G36*
X178589000Y-77497000D02*
G01*
X175487000Y-77497000D01*
X175487000Y-74395000D01*
X178589000Y-74395000D01*
X178589000Y-77497000D01*
G37*
G36*
X161592585Y-71884802D02*
G01*
X161742410Y-71914604D01*
X162024674Y-72031521D01*
X162278705Y-72201259D01*
X162494741Y-72417295D01*
X162664479Y-72671326D01*
X162781396Y-72953590D01*
X162841000Y-73253240D01*
X162841000Y-73558760D01*
X162781396Y-73858410D01*
X162664479Y-74140674D01*
X162494741Y-74394705D01*
X162278705Y-74610741D01*
X162024674Y-74780479D01*
X161742410Y-74897396D01*
X161592585Y-74927198D01*
X161442761Y-74957000D01*
X161137239Y-74957000D01*
X160987415Y-74927198D01*
X160837590Y-74897396D01*
X160555326Y-74780479D01*
X160301295Y-74610741D01*
X160085259Y-74394705D01*
X159915521Y-74140674D01*
X159798604Y-73858410D01*
X159739000Y-73558760D01*
X159739000Y-73253240D01*
X159798604Y-72953590D01*
X159915521Y-72671326D01*
X160085259Y-72417295D01*
X160301295Y-72201259D01*
X160555326Y-72031521D01*
X160837590Y-71914604D01*
X160987415Y-71884802D01*
X161137239Y-71855000D01*
X161442761Y-71855000D01*
X161592585Y-71884802D01*
G37*
M02*
