G04 #@! TF.GenerationSoftware,KiCad,Pcbnew,(5.1.6)-1*
G04 #@! TF.CreationDate,2020-09-18T14:42:58-04:00*
G04 #@! TF.ProjectId,4wireadapter,34776972-6561-4646-9170-7465722e6b69,rev?*
G04 #@! TF.SameCoordinates,Original*
G04 #@! TF.FileFunction,Paste,Top*
G04 #@! TF.FilePolarity,Positive*
%FSLAX46Y46*%
G04 Gerber Fmt 4.6, Leading zero omitted, Abs format (unit mm)*
G04 Created by KiCad (PCBNEW (5.1.6)-1) date 2020-09-18 14:42:58*
%MOMM*%
%LPD*%
G01*
G04 APERTURE LIST*
%ADD10R,1.550000X0.600000*%
G04 APERTURE END LIST*
G36*
G01*
X167772500Y-86103750D02*
X167772500Y-86616250D01*
G75*
G02*
X167553750Y-86835000I-218750J0D01*
G01*
X167116250Y-86835000D01*
G75*
G02*
X166897500Y-86616250I0J218750D01*
G01*
X166897500Y-86103750D01*
G75*
G02*
X167116250Y-85885000I218750J0D01*
G01*
X167553750Y-85885000D01*
G75*
G02*
X167772500Y-86103750I0J-218750D01*
G01*
G37*
G36*
G01*
X169347500Y-86103750D02*
X169347500Y-86616250D01*
G75*
G02*
X169128750Y-86835000I-218750J0D01*
G01*
X168691250Y-86835000D01*
G75*
G02*
X168472500Y-86616250I0J218750D01*
G01*
X168472500Y-86103750D01*
G75*
G02*
X168691250Y-85885000I218750J0D01*
G01*
X169128750Y-85885000D01*
G75*
G02*
X169347500Y-86103750I0J-218750D01*
G01*
G37*
G36*
G01*
X171706250Y-85527500D02*
X171193750Y-85527500D01*
G75*
G02*
X170975000Y-85308750I0J218750D01*
G01*
X170975000Y-84871250D01*
G75*
G02*
X171193750Y-84652500I218750J0D01*
G01*
X171706250Y-84652500D01*
G75*
G02*
X171925000Y-84871250I0J-218750D01*
G01*
X171925000Y-85308750D01*
G75*
G02*
X171706250Y-85527500I-218750J0D01*
G01*
G37*
G36*
G01*
X171706250Y-87102500D02*
X171193750Y-87102500D01*
G75*
G02*
X170975000Y-86883750I0J218750D01*
G01*
X170975000Y-86446250D01*
G75*
G02*
X171193750Y-86227500I218750J0D01*
G01*
X171706250Y-86227500D01*
G75*
G02*
X171925000Y-86446250I0J-218750D01*
G01*
X171925000Y-86883750D01*
G75*
G02*
X171706250Y-87102500I-218750J0D01*
G01*
G37*
G36*
G01*
X170058500Y-76959750D02*
X170058500Y-77472250D01*
G75*
G02*
X169839750Y-77691000I-218750J0D01*
G01*
X169402250Y-77691000D01*
G75*
G02*
X169183500Y-77472250I0J218750D01*
G01*
X169183500Y-76959750D01*
G75*
G02*
X169402250Y-76741000I218750J0D01*
G01*
X169839750Y-76741000D01*
G75*
G02*
X170058500Y-76959750I0J-218750D01*
G01*
G37*
G36*
G01*
X171633500Y-76959750D02*
X171633500Y-77472250D01*
G75*
G02*
X171414750Y-77691000I-218750J0D01*
G01*
X170977250Y-77691000D01*
G75*
G02*
X170758500Y-77472250I0J218750D01*
G01*
X170758500Y-76959750D01*
G75*
G02*
X170977250Y-76741000I218750J0D01*
G01*
X171414750Y-76741000D01*
G75*
G02*
X171633500Y-76959750I0J-218750D01*
G01*
G37*
D10*
X166315001Y-79121000D03*
X166315001Y-80391000D03*
X166315001Y-81661000D03*
X166315001Y-82931000D03*
X171715001Y-82931000D03*
X171715001Y-81661000D03*
X171715001Y-80391000D03*
X171715001Y-79121000D03*
M02*
